<?xml version="1.0" encoding="utf-8"?>
<!-- Generator: Adobe Illustrator 24.0.1, SVG Export Plug-In . SVG Version: 6.00 Build 0)  -->
<svg version="1.1" id="Layer_1" xmlns="http://www.w3.org/2000/svg" xmlns:xlink="http://www.w3.org/1999/xlink" x="0px" y="0px"
	 viewBox="0 0 113.39 113.39" style="enable-background:new 0 0 113.39 113.39;" xml:space="preserve">
<style type="text/css">
	.st0{fill:#1B1B1B;}
</style>
<path class="st0" d="M101.93,43.64c-2-5.87-8.07-18.41-23.27-17.78c-11.57,0.48-18.8,15.43-18.87,23.64
	c0.07,1.91,0.72,2.76,1.45,3.29c2.34,1.72,8.2,4.33,6.29,9.75c-0.21,0.58-0.56,1.21-1.02,1.59c-5.4,4.49-7.21,10-4.97,16.82
	c-1.21,1.01-6,1.01-7.21,0c2.24-6.82,0.43-12.33-4.97-16.82c-0.46-0.39-0.82-1.01-1.02-1.59c-1.91-5.42,3.95-8.03,6.29-9.75
	c0.72-0.53,1.38-1.37,1.45-3.29C56,41.28,48.77,26.34,37.2,25.86C22,25.22,15.93,37.76,13.93,43.64c-0.19,0.55,0.53,0.93,0.88,0.47
	c2.98-3.93,9.6-11.15,17.96-11.1c12.62,0.08,15.84,12.41,13.58,18.4c-0.52,1.38-2.1,5.6-4.6,4.29c-1.99-1.04-4.07-3.83-6.16-4.65
	c-1-0.39-2.09,1.34-2.26,3.03c-0.43,4.42,2.15,8.04,6.35,9.2c0.7,0.19,1.27-0.58,0.89-1.2c-0.46-0.76-0.75-1.51,0-1.51
	c2.05,0,5.68,8.34,6.4,10.63c0.44,1.39,0.37,8.41,0.89,9.35c1.42,2.6,3.02,5.13,4.78,7.51c1.46,1.97,3.31,2.88,5.14,2.78
	c0.1-0.01,0.21-0.01,0.31,0c1.83,0.1,3.67-0.81,5.14-2.78c1.76-2.38,3.36-4.91,4.78-7.51c0.52-0.95,0.45-7.96,0.89-9.35
	c0.72-2.29,4.35-10.63,6.4-10.63c0.75,0,0.46,0.75,0,1.51c-0.38,0.62,0.19,1.4,0.89,1.2c4.2-1.16,6.77-4.78,6.35-9.2
	c-0.16-1.68-1.26-3.42-2.26-3.03c-2.09,0.82-4.18,3.61-6.16,4.65c-2.5,1.31-4.09-2.92-4.6-4.29c-2.26-6,0.96-18.32,13.58-18.4
	c8.36-0.05,14.98,7.17,17.96,11.1C101.4,44.57,102.11,44.18,101.93,43.64z M56.36,88.49c-2.34-0.66-3.31-1.9-3.12-4.25
	c0.06-0.76,0.91-1.17,1.54-0.74C56.72,84.79,57.07,86.13,56.36,88.49z M59.5,88.49c-0.71-2.35-0.37-3.69,1.58-4.99
	c0.63-0.42,1.48-0.01,1.54,0.74C62.81,86.59,61.84,87.82,59.5,88.49z"/>
</svg>
