<svg width="434" height="434" viewBox="0 0 434 434" fill="none" xmlns="http://www.w3.org/2000/svg">
<rect width="434" height="434" rx="10" fill="white"/>
<path d="M80.0386 331.022L49.4883 366.452H47.6721V319.528H53.2834V341.458L52.687 354.904L83.1831 319.474H85.1348V366.425H79.5778V343.898L80.0386 331.022Z" fill="#1B1B1B"/>
<path d="M135.176 324.543V338.124H148.404C153.717 338.124 157.756 339.398 160.548 341.946C163.34 344.495 164.723 347.883 164.723 352.112C164.723 356.341 163.313 359.783 160.467 362.413C157.648 365.042 153.609 366.37 148.404 366.425H129.673V319.61H160.711V324.57H135.176V324.543ZM148.35 342.922H135.176V361.437H148.35C151.874 361.437 154.558 360.624 156.401 358.97C158.244 357.316 159.166 355.039 159.166 352.139C159.166 349.428 158.217 347.205 156.347 345.498C154.503 343.79 151.82 342.922 148.35 342.922Z" fill="#1B1B1B"/>
<path d="M232.763 319.583V324.462H211.158V339.778H232.031V344.657H211.158V361.247H233.495V366.398H205.547V319.583H232.763Z" fill="#1B1B1B"/>
<path d="M280.5 319.583V340.971C286.111 340.971 289.662 340.537 291.126 339.642C293.349 338.314 295.328 334.546 297.008 328.338C298.038 324.869 299.556 322.348 301.562 320.802C303.568 319.257 306.631 318.878 310.725 319.637V323.378C308.177 323.107 306.279 323.486 305.005 324.516C303.731 325.546 302.728 327.335 301.969 329.938C300.153 336.281 298.038 340.456 295.68 342.516L311.999 365.584V366.398H305.656L290.801 344.793C288.849 345.362 285.406 345.66 280.5 345.66V366.398H274.943V319.583H280.5Z" fill="#1B1B1B"/>
<path d="M353.473 360.353C348.919 355.961 346.642 350.187 346.642 343.004C346.642 335.82 348.892 330.019 353.419 325.573C357.946 321.128 363.585 318.959 370.307 319.04C375.078 319.04 379.415 320.315 383.292 322.863C387.168 325.411 389.771 329.016 391.126 333.706H385.704C384.268 330.588 382.235 328.23 379.551 326.603C376.867 325.004 373.804 324.191 370.334 324.191C365.021 324.11 360.711 325.817 357.35 329.368C354.016 332.92 352.335 337.447 352.335 342.977C352.335 348.317 353.988 352.789 357.323 356.395C360.657 359.973 364.967 361.789 370.253 361.789C373.913 361.789 377.138 360.895 379.958 359.078C382.777 357.262 384.783 354.714 385.976 351.434H391.397C390.096 356.476 387.494 360.325 383.617 362.982C379.714 365.639 375.295 366.967 370.334 366.967C363.639 366.94 358.028 364.744 353.473 360.353Z" fill="#1B1B1B"/>
<path d="M338.808 118.335C333.387 102.423 316.932 68.4302 275.729 70.138C244.365 71.4392 224.766 111.965 224.577 134.221C224.766 139.398 226.528 141.702 228.507 143.139C234.85 147.801 250.735 154.877 245.558 169.569C244.989 171.141 244.04 172.849 242.793 173.879C228.155 186.05 223.248 200.987 229.32 219.474C226.04 222.212 213.056 222.212 209.776 219.474C215.848 200.987 210.941 186.05 196.303 173.879C195.056 172.822 194.08 171.141 193.538 169.569C188.361 154.877 204.246 147.801 210.589 143.139C212.541 141.702 214.33 139.425 214.52 134.221C214.33 111.965 194.731 71.4392 163.368 70.138C122.164 68.4302 105.71 102.423 100.261 118.335C99.7459 119.826 101.698 120.856 102.646 119.609C110.724 108.956 128.67 89.3845 151.332 89.52C185.542 89.7369 194.27 123.161 188.144 139.398C186.734 143.139 182.451 154.578 175.674 151.027C170.28 148.208 164.642 140.645 158.976 138.422C156.265 137.365 153.311 142.055 152.85 146.636C151.684 158.617 158.678 168.43 170.063 171.575C171.961 172.09 173.506 170.003 172.476 168.322C171.229 166.262 170.443 164.229 172.476 164.229C178.033 164.229 187.873 186.836 189.825 193.044C191.017 196.812 190.828 215.842 192.237 218.39C196.086 225.438 200.424 232.296 205.195 238.748C209.152 244.088 214.167 246.555 219.128 246.284C219.399 246.256 219.697 246.256 219.968 246.284C224.929 246.555 229.917 244.088 233.902 238.748C238.673 232.296 243.01 225.438 246.859 218.39C248.269 215.815 248.079 196.812 249.272 193.044C251.223 186.836 261.063 164.229 266.621 164.229C268.654 164.229 267.867 166.262 266.621 168.322C265.59 170.003 267.136 172.117 269.033 171.575C280.418 168.43 287.385 158.617 286.246 146.636C285.813 142.082 282.831 137.365 280.12 138.422C274.455 140.645 268.789 148.208 263.422 151.027C256.645 154.578 252.335 143.112 250.952 139.398C244.826 123.133 253.555 89.7369 287.765 89.52C310.427 89.3845 328.372 108.956 336.45 119.609C337.372 120.856 339.323 119.826 338.808 118.335ZM215.279 239.913C208.935 238.124 206.306 234.763 206.821 228.392C206.984 226.332 209.288 225.221 210.996 226.387C216.282 229.911 217.203 233.543 215.279 239.913ZM223.79 239.913C221.866 233.543 222.787 229.911 228.073 226.387C229.781 225.248 232.085 226.359 232.248 228.392C232.79 234.763 230.161 238.124 223.79 239.913Z" fill="#1B1B1B"/>
</svg>
