<?xml version="1.0" encoding="utf-8"?>
<!-- Generator: Adobe Illustrator 24.0.1, SVG Export Plug-In . SVG Version: 6.00 Build 0)  -->
<svg version="1.1" id="Layer_1" xmlns="http://www.w3.org/2000/svg" xmlns:xlink="http://www.w3.org/1999/xlink" x="0px" y="0px"
	 viewBox="0 0 141.73 141.73" style="enable-background:new 0 0 141.73 141.73;" xml:space="preserve">
<style type="text/css">
	.st0{fill:#1B1B1B;}
</style>
<g>
	<g>
		<path class="st0" d="M20.34,114.24L9.07,127.31H8.4V110h2.07v8.09l-0.22,4.96l11.25-13.07h0.72v17.32h-2.05v-8.31L20.34,114.24z"
			/>
		<path class="st0" d="M40.68,111.85v5.01h4.88c1.96,0,3.45,0.47,4.48,1.41c1.03,0.94,1.54,2.19,1.54,3.75
			c0,1.56-0.52,2.83-1.57,3.8c-1.04,0.97-2.53,1.46-4.45,1.48h-6.91v-17.27H50.1v1.83H40.68z M45.54,118.63h-4.86v6.83h4.86
			c1.3,0,2.29-0.3,2.97-0.91c0.68-0.61,1.02-1.45,1.02-2.52c0-1-0.35-1.82-1.04-2.45C47.81,118.95,46.82,118.63,45.54,118.63z"/>
		<path class="st0" d="M76.68,110.02v1.8h-7.97v5.65h7.7v1.8h-7.7v6.12h8.24v1.9H66.64v-17.27H76.68z"/>
		<path class="st0" d="M94.29,110.02v7.89c2.07,0,3.38-0.16,3.92-0.49c0.82-0.49,1.55-1.88,2.17-4.17c0.38-1.28,0.94-2.21,1.68-2.78
			c0.74-0.57,1.87-0.71,3.38-0.43v1.38c-0.94-0.1-1.64,0.04-2.11,0.42c-0.47,0.38-0.84,1.04-1.12,2c-0.67,2.34-1.45,3.88-2.32,4.64
			l6.02,8.51v0.3h-2.34l-5.48-7.97c-0.72,0.21-1.99,0.32-3.8,0.32v7.65h-2.05v-17.27H94.29z"/>
		<path class="st0" d="M121.21,125.06c-1.68-1.62-2.52-3.75-2.52-6.4s0.83-4.79,2.5-6.43s3.75-2.44,6.23-2.41
			c1.76,0,3.36,0.47,4.79,1.41c1.43,0.94,2.39,2.27,2.89,4h-2c-0.53-1.15-1.28-2.02-2.27-2.62c-0.99-0.59-2.12-0.89-3.4-0.89
			c-1.96-0.03-3.55,0.6-4.79,1.91c-1.23,1.31-1.85,2.98-1.85,5.02c0,1.97,0.61,3.62,1.84,4.95c1.23,1.32,2.82,1.99,4.77,1.99
			c1.35,0,2.54-0.33,3.58-1c1.04-0.67,1.78-1.61,2.22-2.82h2c-0.48,1.86-1.44,3.28-2.87,4.26c-1.44,0.98-3.07,1.47-4.9,1.47
			C124.96,127.49,122.89,126.68,121.21,125.06z"/>
	</g>
	<path class="st0" d="M115.8,35.78c-2-5.87-8.07-18.41-23.27-17.78c-11.57,0.48-18.8,15.43-18.87,23.64
		c0.07,1.91,0.72,2.76,1.45,3.29c2.34,1.72,8.2,4.33,6.29,9.75c-0.21,0.58-0.56,1.21-1.02,1.59c-5.4,4.49-7.21,10-4.97,16.82
		c-1.21,1.01-6,1.01-7.21,0c2.24-6.82,0.43-12.33-4.97-16.82c-0.46-0.39-0.82-1.01-1.02-1.59c-1.91-5.42,3.95-8.03,6.29-9.75
		c0.72-0.53,1.38-1.37,1.45-3.29c-0.07-8.21-7.3-23.16-18.87-23.64C35.88,17.37,29.81,29.91,27.8,35.78
		c-0.19,0.55,0.53,0.93,0.88,0.47c2.98-3.93,9.6-11.15,17.96-11.1c12.62,0.08,15.84,12.41,13.58,18.4c-0.52,1.38-2.1,5.6-4.6,4.29
		c-1.99-1.04-4.07-3.83-6.16-4.65c-1-0.39-2.09,1.34-2.26,3.03c-0.43,4.42,2.15,8.04,6.35,9.2c0.7,0.19,1.27-0.58,0.89-1.2
		c-0.46-0.76-0.75-1.51,0-1.51c2.05,0,5.68,8.34,6.4,10.63c0.44,1.39,0.37,8.41,0.89,9.35c1.42,2.6,3.02,5.13,4.78,7.51
		c1.46,1.97,3.31,2.88,5.14,2.78c0.1-0.01,0.21-0.01,0.31,0c1.83,0.1,3.67-0.81,5.14-2.78c1.76-2.38,3.36-4.91,4.78-7.51
		c0.52-0.95,0.45-7.96,0.89-9.35c0.72-2.29,4.35-10.63,6.4-10.63c0.75,0,0.46,0.75,0,1.51c-0.38,0.62,0.19,1.4,0.89,1.2
		c4.2-1.16,6.77-4.78,6.35-9.2c-0.16-1.68-1.26-3.42-2.26-3.03c-2.09,0.82-4.18,3.61-6.16,4.65c-2.5,1.31-4.09-2.92-4.6-4.29
		c-2.26-6,0.96-18.32,13.58-18.4c8.36-0.05,14.98,7.17,17.96,11.1C115.27,36.71,115.99,36.33,115.8,35.78z M70.23,80.63
		c-2.34-0.66-3.31-1.9-3.12-4.25c0.06-0.76,0.91-1.17,1.54-0.74C70.6,76.94,70.94,78.28,70.23,80.63z M73.37,80.63
		c-0.71-2.35-0.37-3.69,1.58-4.99c0.63-0.42,1.48-0.01,1.54,0.74C76.69,78.73,75.72,79.97,73.37,80.63z"/>
</g>
</svg>
